<svg width="100%" height="100%" id="svg" viewBox="0 0 1440 700" xmlns="http://www.w3.org/2000/svg" class="transition duration-300 ease-in-out delay-150"><path d="M 0,700 C 0,700 0,140 0,140 C 147.42857142857142,139.39285714285714 294.85714285714283,138.78571428571428 398,151 C 501.14285714285717,163.21428571428572 560,188.25000000000003 655,182 C 750,175.74999999999997 881.1428571428573,138.21428571428572 1018,126 C 1154.8571428571427,113.78571428571429 1297.4285714285713,126.89285714285714 1440,140 C 1440,140 1440,700 1440,700 Z" stroke="none" stroke-width="0" fill="#7bdcb544" class="transition-all duration-300 ease-in-out delay-150 path-0"></path><path d="M 0,700 C 0,700 0,280 0,280 C 98.53571428571428,285.1071428571429 197.07142857142856,290.2142857142857 324,279 C 450.92857142857144,267.7857142857143 606.2499999999999,240.25000000000003 749,243 C 891.7500000000001,245.74999999999997 1021.9285714285713,278.7857142857143 1135,290 C 1248.0714285714287,301.2142857142857 1344.0357142857142,290.6071428571429 1440,280 C 1440,280 1440,700 1440,700 Z" stroke="none" stroke-width="0" fill="#7bdcb566" class="transition-all duration-300 ease-in-out delay-150 path-1"></path><path d="M 0,700 C 0,700 0,420 0,420 C 150.75,411.4642857142857 301.5,402.92857142857144 423,416 C 544.5,429.07142857142856 636.7500000000001,463.74999999999994 733,452 C 829.2499999999999,440.25000000000006 929.5,382.0714285714286 1048,369 C 1166.5,355.9285714285714 1303.25,387.96428571428567 1440,420 C 1440,420 1440,700 1440,700 Z" stroke="none" stroke-width="0" fill="#7bdcb588" class="transition-all duration-300 ease-in-out delay-150 path-2"></path><path d="M 0,700 C 0,700 0,560 0,560 C 126.71428571428572,565.9285714285714 253.42857142857144,571.8571428571429 385,558 C 516.5714285714286,544.1428571428571 653,510.5 780,521 C 907,531.5 1024.5714285714287,586.1428571428571 1133,600 C 1241.4285714285713,613.8571428571429 1340.7142857142858,586.9285714285714 1440,560 C 1440,560 1440,700 1440,700 Z" stroke="none" stroke-width="0" fill="#7bdcb5ff" class="transition-all duration-300 ease-in-out delay-150 path-3"></path></svg>