<?xml version="1.0" encoding="utf-8"?><!DOCTYPE svg PUBLIC "-//W3C//DTD SVG 1.1//EN" "http://www.w3.org/Graphics/SVG/1.1/DTD/svg11.dtd"><svg version="1.1" id="Contours" xmlns="http://www.w3.org/2000/svg" xmlns:xlink="http://www.w3.org/1999/xlink" x="0px" y="0px" width="2388.023193px" height="2388.023193px" viewBox="-0.000004 -0.000008 2388.023193 1178.603271" enable-background="new 0 0 2388.023193 2388.023193" xml:space="preserve" stroke="black" fill="none" stroke-linecap='round' stroke-linejoin='round'><path class="selected"  fill="#000000" opacity="1.000000" stroke="none" 
 	d="
M2386.004383 456.407387 C2386.004383 597.061195 2387.616932 736.739906 2385.451649 876.360146 C2383.946034 973.427406 2385.125477 1070.468300 2384.005116 1167.513344 C2383.915272 1175.283241 2382.403797 1177.024574 2373.962635 1178.353188 C2371.685780 1178.711586 2369.304920 1178.407387 2366.971668 1178.407387 C2217.652088 1178.407387 2068.332752 1178.349525 1919.013416 1178.603188 C1912.555653 1178.614174 1907.971424 1176.184364 1903.371571 1172.735756 C1889.622303 1162.427650 1875.851429 1152.143959 1862.270985 1141.616005 C1846.338612 1129.264809 1830.590321 1116.676064 1814.776722 1104.171669 C1808.384388 1099.117226 1801.854115 1096.163856 1792.993275 1096.169960 C1396.363270 1096.444252 999.733143 1096.481483 603.103504 1096.101723 C589.099781 1096.088295 578.675037 1100.678139 568.242847 1108.928627 C550.052113 1123.314980 531.142933 1136.789589 512.660206 1150.811317 C502.972523 1158.160561 493.420582 1165.703651 484.071644 1173.477211 C480.172291 1176.719398 476.249012 1178.478676 471.083973 1178.475746 C321.097858 1178.391029 171.111713 1178.407387 21.125553 1178.407387 C19.459034 1178.407387 17.756535 1178.631264 16.131992 1178.370155 C7.386234 1176.964149 6.437367 1175.331581 5.899159 1166.608314 C5.319691 1157.216835 7.716633 1147.770424 4.306644 1138.323769 C3.087940 1134.947548 6.115208 1130.275551 5.889179 1126.269081 C1.693699 1051.909706 4.678730 977.494545 4.125660 903.110756 C3.573048 828.788368 5.749317 754.406044 3.511173 680.147133 C1.294956 606.615639 2.724812 533.135170 2.135700 459.637062 C1.540012 385.315346 3.764042 310.931679 1.508900 236.673744 C-0.740978 162.589333 1.223469 88.553017 0.005756 14.507637 C-0.005199 13.841225 0.002445 13.174446 0.004673 12.507851 C0.038425 2.466438 0.038471 2.437660 9.659626 2.414558 C21.991749 2.384926 34.363941 3.056221 46.649601 2.300117 C116.343891 -1.989220 186.092152 1.154457 255.809589 0.541756 C325.464436 -0.070427 395.130543 0.645210 464.787403 0.159767 C475.664478 0.083992 484.716480 2.926674 493.331654 8.743843 C515.994740 24.046364 538.640492 39.374428 561.290699 54.695961 C565.458241 57.514992 569.554676 60.445900 573.812672 63.120216 C575.070606 63.910255 576.748768 64.199257 578.271717 64.357216 C580.250294 64.562355 582.266163 64.407387 584.265980 64.407387 C989.895252 64.407387 1395.524403 64.380775 1801.153553 64.582375 C1810.010120 64.586769 1817.164539 62.124428 1824.218617 57.289833 C1848.849720 40.408668 1873.527210 23.588478 1898.454823 7.151070 C1905.266834 2.659157 1912.617176 0.096260 1921.631336 0.123909 C2055.617420 0.534492 2189.605701 0.326912 2323.593250 0.496468 C2343.097157 0.521126 2362.597889 1.793739 2382.103748 2.364204 C2386.175037 2.483223 2388.168934 4.139595 2388.014881 8.262276 C2387.952625 9.926460 2388.004383 11.594917 2388.004383 13.261421 C2388.004383 155.248329 2388.026356 297.235268 2387.919910 439.222084 C2387.916004 444.617653 2386.671131 450.012306 2386.004383 456.407387 M1194.004383 293.407387 C1194.004383 384.391640 1194.001087 475.375893 1194.008900 566.360146 C1194.009754 576.351234 1194.039295 576.351479 1203.711414 576.406898 C1204.377918 576.410683 1205.044544 576.407387 1205.711048 576.407387 C1438.003407 576.407387 1670.295765 576.407387 1902.588123 576.407387 C1903.921131 576.407387 1905.273182 576.263222 1906.583973 576.434242 C1910.613758 576.959877 1912.821278 575.729774 1912.020252 571.237587 C1911.905018 570.591591 1912.004383 569.907265 1912.004383 569.240761 C1912.004383 560.575600 1912.004383 551.910561 1912.004383 543.245399 C1912.004383 534.246986 1912.004383 525.248512 1912.004383 516.250099 C1912.004383 507.584938 1912.004383 498.919838 1912.004383 490.254677 C1912.004383 481.589516 1912.004383 472.924416 1912.004383 464.259254 C1912.004383 455.260841 1912.004383 446.262489 1912.004383 437.264076 C1912.004383 428.598915 1912.004383 419.933815 1912.004383 411.268654 C1912.004383 402.603493 1912.004383 393.938393 1912.004383 385.273231 C1912.004383 376.274818 1912.223377 367.269508 1911.939442 358.280067 C1911.682850 350.157509 1913.363270 342.105324 1912.176258 333.914589 C1911.667225 330.402321 1913.947742 326.471230 1913.386707 322.983498 C1911.537342 311.481483 1912.517811 300.251076 1913.539295 289.383522 C1914.086903 283.561439 1915.532703 276.991798 1913.489002 271.290565 C1912.380116 268.197060 1911.579823 266.544044 1913.523426 263.499489 C1914.554920 261.883888 1913.143299 258.708778 1912.834705 256.237709 C1912.557606 254.019447 1911.340321 251.337929 1912.165272 249.662086 C1915.965076 241.943153 1911.945301 233.885231 1913.727528 226.010170 C1914.640125 221.977882 1911.176502 216.833961 1912.352039 213.010536 C1914.148426 207.166359 1914.617176 201.353737 1913.744617 195.775917 C1912.864002 190.144752 1914.225086 184.852394 1914.167469 179.393593 C1913.833729 147.736000 1914.004383 116.073158 1914.004383 84.412086 C1914.004383 74.411415 1914.004383 74.407936 1904.426502 74.407936 C1753.786488 74.407204 1603.146351 74.407387 1452.506336 74.407387 C1369.520985 74.407387 1286.535633 74.407021 1203.550282 74.407997 C1194.004383 74.408058 1194.004383 74.411659 1194.004383 84.443886 C1194.004383 153.431740 1194.004383 222.419533 1194.004383 293.407387 M1875.004383 586.407387 C1651.041004 586.407387 1427.077747 586.407143 1203.114368 586.408241 C1194.053211 586.408363 1194.010975 586.414589 1194.010609 593.880531 C1194.002430 755.520546 1194.001087 917.160561 1194.012196 1078.800575 C1194.012806 1088.374062 1194.066029 1088.381996 1204.151966 1088.404579 C1210.817493 1088.419472 1217.483021 1088.407387 1224.148548 1088.407387 C1230.480824 1088.407387 1236.813221 1088.407387 1243.145496 1088.407387 C1249.811024 1088.407387 1256.476673 1088.407387 1263.142201 1088.407387 C1269.474476 1088.407387 1275.970448 1089.293251 1282.093617 1088.161903 C1288.410999 1086.994545 1294.344715 1089.016518 1300.485706 1088.486488 C1305.117054 1088.086708 1309.811146 1088.450478 1314.476429 1088.394691 C1318.763905 1088.343422 1323.050037 1088.100624 1327.336781 1088.099403 C1331.496326 1088.098061 1335.663929 1088.517616 1339.813709 1088.363441 C1349.884632 1087.989418 1359.894520 1088.233437 1370.046131 1086.896767 C1379.302235 1085.678261 1389.102406 1086.392372 1398.662708 1086.393471 C1566.301746 1086.412880 1733.940784 1086.407387 1901.579823 1086.407387 C1903.579578 1086.407387 1905.599842 1086.224281 1907.574207 1086.448524 C1910.862293 1086.821938 1912.668690 1086.071327 1912.058582 1082.239906 C1911.748035 1080.289833 1912.004383 1078.249184 1912.004383 1076.249550 C1912.004383 916.609169 1912.004383 756.968910 1912.004383 597.328529 C1912.004383 595.328896 1911.817371 593.307533 1912.044910 591.334145 C1912.467274 587.671425 1911.551502 586.245277 1907.341785 586.261269 C1898.271229 586.295814 1889.055653 587.703041 1880.131825 584.529457 C1879.403797 584.270546 1878.061268 585.740639 1875.004383 586.407387 M1184.004383 731.407387 C1184.004383 686.420570 1184.004383 641.433876 1184.004383 596.447060 C1184.004383 586.411659 1184.004383 586.407997 1174.463856 586.407997 C946.198231 586.407265 717.932606 586.407387 489.666981 586.407387 C487.667591 586.407387 485.665699 586.471230 483.669239 586.394203 C479.372791 586.228554 477.869373 588.560219 477.993336 592.497719 C478.056263 594.495155 478.004383 596.496254 478.004383 598.495644 C478.004383 689.135414 478.102772 779.775307 477.950062 870.414833 C477.897877 901.364296 477.692493 932.291298 476.400379 963.260536 C474.762684 1002.513954 475.972706 1041.887367 476.036182 1081.209022 C476.046497 1087.589882 476.878284 1088.203041 483.559742 1088.401649 C484.891529 1088.441200 486.225452 1088.407387 487.558399 1088.407387 C715.824024 1088.407387 944.089588 1088.407387 1172.355213 1088.407387 C1174.354603 1088.407387 1176.356556 1088.343178 1178.353016 1088.420570 C1182.662586 1088.587685 1184.137684 1086.230629 1184.015369 1082.303505 C1183.953236 1080.306068 1184.004383 1078.305092 1184.004383 1076.305702 C1184.004383 962.006264 1184.004383 847.706825 1184.004383 731.407387 M478.004383 491.407387 C478.004383 517.069618 477.973499 542.731972 478.024281 568.394081 C478.038502 575.583290 478.759632 576.224159 485.746082 576.401161 C487.411366 576.443275 489.078602 576.407387 490.744984 576.407387 C718.371082 576.407387 945.997181 576.407387 1173.623280 576.407387 C1175.289661 576.407387 1176.978748 576.230873 1178.617909 576.442177 C1182.713856 576.970253 1184.728016 575.635780 1184.044788 571.199135 C1183.794178 569.571327 1184.004383 567.872597 1184.004383 566.206215 C1184.004383 557.541054 1184.004383 548.876015 1184.004383 540.210854 C1184.004383 531.879066 1184.004383 523.547218 1184.004383 515.215370 C1184.004383 506.550270 1184.004383 497.885109 1184.004383 489.220009 C1184.004383 480.554909 1184.004383 471.889748 1184.004383 463.224647 C1184.004383 454.559547 1184.004383 445.894386 1184.004383 437.229286 C1184.004383 428.897438 1184.004383 420.565590 1184.004383 412.233742 C1184.004383 403.568642 1184.004383 394.903480 1184.004383 386.238380 C1184.004383 377.573219 1184.004383 368.908119 1184.004383 360.242958 C1184.004383 351.911110 1184.004383 343.579262 1184.004383 335.247414 C1184.004383 326.582314 1184.004383 317.917152 1184.004383 309.252052 C1184.004383 300.586952 1184.004383 291.921791 1184.004383 283.256691 C1184.004383 274.591591 1184.004383 265.926430 1184.004383 257.261330 C1184.004383 248.929481 1183.255482 240.510231 1184.214832 232.290382 C1185.174793 224.065590 1183.686146 216.037331 1184.026478 207.928200 C1184.282093 201.834450 1182.768787 195.532326 1186.004383 189.759071 C1181.535511 181.327431 1184.852650 172.303444 1184.115345 163.582924 C1183.555775 156.964821 1184.629017 150.184792 1183.823719 143.618080 C1183.061390 137.401772 1187.301746 131.369545 1184.004383 125.256325 C1189.000233 117.092506 1183.353260 108.205543 1185.815052 99.691872 C1187.401844 94.203590 1185.095326 88.298073 1185.741322 82.378151 C1186.516468 75.274025 1185.023670 74.545998 1177.906117 74.408180 C1177.572987 74.401772 1177.239613 74.407387 1176.906361 74.407387 C946.947376 74.407387 716.988331 74.405983 487.029347 74.414162 C480.085377 74.414406 480.018726 74.461037 480.015308 80.965919 C479.993763 121.625343 480.309376 162.287697 479.917713 202.943336 C479.534046 242.776222 479.876820 282.590004 478.491200 322.454079 C476.558949 378.043678 478.004383 433.750648 478.004383 491.407387 M1922.004383 301.407387 C1922.004383 376.059975 1922.004383 450.712563 1922.004383 525.365150 C1922.004383 540.029091 1922.127918 554.694740 1921.935780 569.356239 C1921.870838 574.311684 1923.567127 576.708778 1928.711170 576.444008 C1932.367420 576.255653 1936.087879 576.068520 1939.685535 576.564613 C1941.247303 576.780067 1943.577869 578.596840 1943.728748 579.898476 C1943.887684 581.269325 1941.456532 584.341225 1940.854481 584.173134 C1936.858875 583.057411 1933.927723 588.868813 1929.091541 585.005287 C1925.852284 582.417274 1922.479725 585.215370 1922.037098 589.721962 C1921.842762 591.702553 1922.004383 593.718056 1922.004383 595.717689 C1922.004383 756.354774 1922.004383 916.991981 1922.004383 1077.629066 C1922.004383 1079.628700 1921.685047 1081.702919 1922.127918 1083.599037 C1922.381580 1084.684730 1923.731190 1085.955482 1924.844715 1086.291908 C1926.371571 1086.753334 1928.142567 1086.407387 1929.808826 1086.407387 C2021.125477 1086.407387 2112.441883 1086.407387 2203.758534 1086.407387 C2205.758289 1086.407387 2207.798084 1086.638954 2209.739002 1086.301186 C2210.597645 1086.151772 2211.781239 1084.930946 2211.918201 1084.055824 C2212.756825 1078.693153 2213.905750 1073.291542 2213.917469 1067.900551 C2214.053211 1005.245766 2214.004383 942.590614 2214.004383 879.935463 C2214.004383 817.613564 2213.544178 755.287270 2214.134266 692.970985 C2214.719959 631.144203 2211.540516 569.275429 2216.004383 507.489662 C2216.004383 365.515785 2216.008778 223.541847 2215.994129 81.567970 C2215.993153 72.469398 2215.925037 72.421913 2206.410633 72.415932 C2172.083729 72.394264 2137.756336 72.351540 2103.429920 72.494728 C2100.037342 72.508888 2095.868885 75.323097 2093.408192 74.107948 C2086.283924 70.590126 2079.138172 73.172768 2072.082020 72.520546 C2066.134022 71.970741 2059.962635 71.635231 2054.134510 72.632240 C2048.691639 73.563454 2043.207020 70.877113 2038.007313 73.417641 C2032.090076 76.308937 2026.010731 72.533180 2019.797108 73.944069 C2017.323719 74.505653 2014.191151 72.349586 2010.392323 74.024635 C2007.521229 75.290565 2003.104481 72.484413 1999.394520 72.551125 C1994.327869 72.642250 1989.224110 74.562477 1984.235096 74.228249 C1975.174549 73.621071 1966.080067 74.064064 1956.969471 73.254738 C1947.956043 72.453957 1938.071034 74.151039 1928.547108 74.391640 C1922.059803 74.555580 1922.012440 74.488930 1922.011219 81.447487 C1921.999989 154.100807 1922.004383 226.754066 1922.004383 301.407387 M468.004383 807.407387 C468.004383 740.752602 468.004383 674.097816 468.004383 607.443031 C468.004383 604.443520 468.004383 601.444008 468.004383 598.444496 C468.004383 586.437294 468.004383 586.436562 456.459766 586.408119 C454.460133 586.403114 452.132374 587.057777 450.538319 586.253700 C448.196339 585.072426 446.378529 582.852089 444.337330 581.074379 C446.359180 579.518715 448.258289 577.745522 450.457752 576.504555 C451.468983 575.934120 453.069080 576.407387 454.402210 576.407387 C457.734974 576.407387 461.087452 576.181190 464.394886 576.470741 C467.727100 576.762367 468.061329 575.216103 468.060047 572.426674 C468.048145 546.578041 469.495350 520.719704 469.640919 494.923805 C470.413990 357.951942 470.004383 220.973427 470.004383 83.997169 C470.004383 81.997536 469.802723 79.972572 470.049427 78.003822 C470.468800 74.657265 468.793690 74.057106 466.007557 74.381142 C464.692249 74.534035 463.344410 74.407387 462.011341 74.407387 C371.360401 74.407387 280.709461 74.404091 190.058521 74.411903 C180.060902 74.412819 180.016468 74.442238 180.012135 84.107521 C179.993824 124.767128 180.004383 165.426735 180.004383 206.086342 C180.004383 216.084633 180.004383 226.082863 180.004383 236.081154 C180.004383 246.412697 180.004383 256.744240 180.004383 267.075783 C180.004383 277.074013 180.004383 287.072304 180.004383 297.070534 C180.004383 307.068825 180.004383 317.067055 180.004383 327.065346 C180.004383 337.396889 180.004383 347.728432 180.004383 358.059975 C180.004383 368.058266 180.004383 378.056496 180.004383 388.054787 C180.004383 398.053017 180.004383 408.051308 180.004383 418.049538 C180.004383 428.381081 180.004383 438.712624 180.004383 449.044167 C180.004383 459.042458 180.004383 469.040688 180.004383 479.038979 C180.004383 489.370522 180.004383 499.702064 180.004383 510.033607 C180.004383 520.031837 180.004383 530.030067 180.004383 540.028358 C180.004383 550.026649 180.004383 560.024940 180.004383 570.023231 C180.004383 580.354774 180.004383 590.686317 180.004383 601.017860 C180.004383 611.016151 180.004383 621.014320 180.004383 631.012611 C180.004383 641.010902 180.004383 651.009071 180.004383 661.007362 C180.004383 671.338905 179.615131 681.689491 180.118671 691.996376 C180.581440 701.468788 179.892689 710.893471 179.990162 720.340126 C180.062397 727.338173 180.002155 734.337563 180.005024 741.336342 C180.007679 747.782875 182.687275 754.201088 180.069965 760.702187 C179.608143 761.849403 179.815357 763.374428 180.036884 764.669594 C181.029499 770.473671 181.792530 776.278358 182.073780 782.183144 C182.460835 790.309242 179.606556 798.359047 181.856464 806.565590 C182.363789 808.416054 180.846272 810.755775 180.552357 812.910072 C180.251148 815.117958 180.033192 817.404701 180.272968 819.602943 C180.612568 822.715858 181.714527 825.758095 181.929524 828.869179 C182.227497 833.181190 182.228199 837.544350 181.936970 841.857216 C181.681599 845.638832 180.382343 849.383339 180.397114 853.140907 C180.413013 857.162880 181.924549 861.180092 181.930347 865.200722 C182.032581 936.188271 182.004383 1007.175941 182.004383 1078.163612 C182.004383 1080.496498 182.172810 1082.845009 181.960377 1085.158363 C181.713001 1087.851967 182.813190 1088.689613 185.347218 1088.438271 C186.997395 1088.274574 188.676899 1088.407387 190.343281 1088.407387 C279.327839 1088.407387 368.312428 1088.407387 457.296986 1088.407387 C458.963367 1088.407387 460.632008 1088.351601 462.295704 1088.418373 C466.550770 1088.589027 468.144276 1086.330116 468.015675 1082.359657 C467.950977 1080.362099 468.004383 1078.360756 468.004383 1076.361122 C468.004383 987.376503 468.004383 898.392006 468.004383 807.407387 M170.004383 77.407387 C170.004383 76.408607 169.998524 75.409828 170.005299 74.411110 C170.072712 64.460731 170.073292 64.460304 179.755848 64.408119 C180.755695 64.402748 181.755604 64.407387 182.755482 64.407387 C305.074177 64.407387 427.392872 64.407387 549.711597 64.407387 C552.044666 64.407387 554.386890 64.528847 556.706593 64.352821 C557.760242 64.272743 558.769032 63.603310 559.798145 63.201149 C558.907887 62.936562 557.921742 62.835976 557.142811 62.380836 C552.037037 59.397804 546.827992 56.558510 541.926746 53.264442 C523.135975 40.635109 504.491383 27.788185 485.699024 15.161232 C479.348988 10.894539 472.912708 7.906715 464.501270 8.188118 C416.138538 9.806343 367.760914 7.330360 319.331196 9.981911 C280.784687 12.092293 242.030384 10.407387 203.368336 10.407387 C141.042469 10.407387 78.716435 10.465706 16.391026 10.296242 C11.423618 10.282753 8.963871 11.214424 9.968815 16.612038 C10.208714 17.900551 10.004383 19.271767 10.004383 20.604958 C10.004383 84.264015 9.547367 147.927223 10.133762 211.580849 C10.712574 274.411598 9.617802 337.222511 11.473438 400.089638 C13.714512 476.014381 11.614384 552.058388 12.114674 628.045937 C12.609531 703.208778 11.934956 778.359047 13.484119 853.544838 C15.577747 955.156166 14.064625 1056.843178 13.908131 1158.497475 C13.893009 1168.308144 15.650715 1168.493690 23.849903 1168.487587 C171.832111 1168.377602 319.814442 1168.409828 467.796742 1168.393837 C471.655079 1168.393471 474.960133 1168.281288 478.575916 1165.238197 C487.759083 1157.510414 497.913685 1150.945106 507.589222 1143.792397 C518.324940 1135.855873 529.058399 1127.910194 539.609852 1119.732582 C548.371449 1112.942299 556.416309 1105.188637 566.589161 1100.353188 C567.250721 1100.038612 567.938831 1098.914101 567.887928 1098.219887 C567.840870 1097.578529 566.898060 1096.640419 566.205250 1096.487343 C564.934010 1096.206703 563.556568 1096.407387 562.223377 1096.407387 C539.559437 1096.407387 516.895374 1096.429237 494.231495 1096.390785 C489.127979 1096.382240 484.037403 1098.556435 478.923817 1096.487953 C470.452442 1102.615639 461.312672 1093.861366 452.448292 1097.702064 C449.732044 1098.878944 445.091480 1095.567299 442.339039 1096.718544 C437.956959 1098.551186 434.400806 1096.105385 430.528980 1096.457680 C425.453785 1096.919594 420.412342 1098.311806 415.354542 1098.321205 C346.363026 1098.449257 277.371143 1098.460365 208.379597 1098.345009 C198.975361 1098.329262 189.594685 1099.102821 180.152851 1096.631020 C172.289875 1094.572670 172.062519 1095.440712 172.004658 1086.858925 C172.002430 1086.525673 172.004383 1086.192299 172.004383 1085.859047 C172.004383 1085.525795 172.004383 1085.192421 172.004383 1084.859169 C172.004383 847.220985 172.004383 609.582680 172.004383 371.944496 C172.004383 371.611183 172.004383 371.277931 172.004383 370.944618 C172.004383 370.611305 172.004383 370.278053 172.004383 369.944740 C172.004383 369.611427 172.004383 369.278175 172.004383 368.944862 C172.004383 368.611549 172.004383 368.278297 172.004383 367.944984 C172.004383 367.611671 172.004383 367.278419 172.004383 366.945106 C172.004383 366.611793 172.004383 366.278542 172.004383 365.945229 C172.004383 365.611916 172.004383 365.278664 172.004383 364.945351 C172.004383 364.612038 172.046680 364.271645 171.991901 363.947609 C171.941517 363.649513 171.832233 363.338600 171.665546 363.089027 C171.483997 362.817238 171.206379 362.609535 170.970783 362.373878 C170.735065 362.138222 170.448628 361.933754 170.278706 361.657631 C170.122181 361.403236 170.054554 361.076637 170.014210 360.773048 C169.970722 360.445473 169.946308 360.093971 170.021320 359.778480 C170.090473 359.487953 170.273640 359.209206 170.459766 358.966042 C170.660633 358.703712 170.923176 358.488564 171.158863 358.252846 C171.394581 358.017311 171.698811 357.817421 171.845936 357.535500 C171.984730 357.269691 171.977070 356.918861 171.999195 356.603004 C172.022388 356.271339 172.004383 355.936806 172.004383 355.603493 C172.004383 355.270180 172.004383 354.936928 172.004383 354.603615 C172.004383 354.270302 172.004383 353.937050 172.004383 353.603737 C172.004383 353.270424 172.004383 352.937172 172.004383 352.603859 C172.004383 352.270546 172.004383 351.937294 172.004383 351.603981 C172.004383 351.270668 172.004383 350.937416 172.004383 350.604103 C172.004383 345.271400 173.167103 339.579079 171.661671 334.712013 C170.287830 330.270241 173.417530 326.434303 170.974690 321.644691 C169.059406 317.889503 171.571003 311.918800 171.972614 306.920876 C172.158863 304.602760 172.866657 301.758705 171.855579 300.010353 C167.405109 292.314552 172.261189 284.425209 170.825428 276.682167 C169.857990 271.464699 170.561756 266.225624 171.415699 260.807350 C172.097248 256.483070 169.793446 251.479652 170.886311 246.159157 C171.910450 241.173317 170.065418 235.667274 170.056294 230.389259 C169.969318 180.062050 170.004383 129.734718 170.004383 77.407387 M2224.004383 577.407387 C2222.868885 684.554115 2225.525135 791.704018 2222.338856 898.866249 C2220.497303 960.800453 2222.011219 1022.834022 2221.996815 1084.822914 C2221.994617 1093.616249 2219.528309 1096.095985 2210.663319 1096.399452 C2208.999012 1096.456459 2207.330799 1096.407387 2205.664539 1096.407387 C2080.687000 1096.407387 1955.709705 1096.407387 1830.732166 1096.407387 C1828.066029 1096.407387 1825.396595 1096.334145 1822.735462 1096.448524 C1821.848255 1096.486732 1820.981922 1097.006142 1820.106068 1097.305580 C1820.745228 1098.012611 1821.279408 1098.869057 1822.039784 1099.403480 C1830.807972 1105.566200 1839.801014 1111.426430 1848.365467 1117.858070 C1868.234364 1132.779091 1888.257801 1147.537636 1907.405750 1163.346230 C1912.392811 1167.463417 1916.768787 1168.438759 1922.427479 1168.437294 C2069.400867 1168.399452 2216.374500 1168.407387 2363.347889 1168.407387 C2365.347645 1168.407387 2367.391102 1168.141151 2369.337879 1168.461952 C2373.583241 1169.161293 2374.040272 1167.111488 2374.084705 1163.481850 C2374.563953 1124.095863 2372.777088 1084.695351 2375.802967 1045.315224 C2377.024891 1029.412025 2376.004383 1013.336464 2376.004383 997.339394 C2376.004383 981.675575 2376.004383 966.011635 2376.004383 950.347816 C2376.004383 934.350746 2376.004383 918.353554 2376.004383 902.356483 C2376.004383 886.692665 2376.004383 871.028847 2376.004383 855.365028 C2376.004383 839.367958 2376.004383 823.370766 2376.004383 807.373695 C2376.004383 791.709877 2376.004383 776.045937 2376.004383 760.382118 C2376.004383 744.385048 2376.004383 728.387855 2376.004383 712.390785 C2376.004383 696.726967 2376.528309 681.040565 2375.855946 665.405678 C2375.190662 649.931801 2378.085926 634.515053 2376.072010 619.055946 C2375.880360 617.586708 2376.762196 616.007484 2376.928211 614.455971 C2377.352528 610.495522 2377.956287 606.522133 2377.959461 602.553505 C2378.020496 527.900307 2377.579578 453.243996 2378.124012 378.594765 C2378.665028 304.436562 2376.597157 230.282875 2379.662342 156.105629 C2381.518299 111.190468 2380.004383 66.136024 2380.004383 21.144142 C2380.004383 19.477760 2379.949207 17.809242 2380.015125 16.145485 C2380.182606 11.918129 2377.978016 10.251717 2373.986317 10.399574 C2372.655018 10.448891 2371.320301 10.407387 2369.987293 10.407387 C2317.663319 10.407387 2265.333973 10.881996 2213.017078 10.273567 C2160.969227 9.668282 2108.944813 11.373390 2056.850086 8.868843 C2010.964588 6.662758 1964.888905 8.426521 1918.897205 8.371559 C1915.167469 8.367073 1912.413319 9.243996 1909.222645 11.803169 C1901.915028 17.664589 1893.915272 22.767982 1885.796864 27.492104 C1867.702992 38.020363 1851.885120 52.159950 1832.644520 60.857521 C1831.627552 61.317299 1831.018909 62.680580 1830.220203 63.623207 C1831.445057 63.884560 1832.659412 64.277443 1833.897205 64.375099 C1835.553333 64.505653 1837.227406 64.407387 1838.893787 64.407387 C1874.554066 64.407387 1910.214344 64.407387 1945.874500 64.407387 C2034.525135 64.407387 2123.175770 64.441933 2211.826160 64.315163 C2216.762684 64.308144 2220.457752 65.260231 2223.978260 69.090248 C2227.071278 72.455299 2225.924549 75.920326 2225.933338 79.325661 C2226.042225 121.317787 2226.447742 163.316322 2225.879871 205.301064 C2225.311268 247.350868 2225.636219 289.392494 2224.592762 331.465980 C2222.577381 412.734657 2224.004383 494.088722 2224.004383 577.407387 z"/></svg>