<?xml version="1.0" encoding="UTF-8" standalone="no"?>
<!DOCTYPE svg PUBLIC "-//W3C//DTD SVG 1.1//EN" "http://www.w3.org/Graphics/SVG/1.1/DTD/svg11.dtd"
[
<!ATTLIST g
  xmlns:vectornator CDATA #FIXED "http://vectornator.io"
  vectornator:layerName CDATA #IMPLIED >
<!ATTLIST g
  xmlns:vectornator CDATA #FIXED "http://vectornator.io"
  vectornator:mask CDATA #IMPLIED >
<!ATTLIST text
  xmlns:vectornator CDATA #FIXED "http://vectornator.io"
  vectornator:width CDATA #IMPLIED >
<!ATTLIST text
  xmlns:vectornator CDATA #FIXED "http://vectornator.io"
  vectornator:text CDATA #IMPLIED >

<!ATTLIST path
  xmlns:vectornator CDATA #FIXED "http://vectornator.io"
  vectornator:blendMode CDATA #IMPLIED >
<!ATTLIST path
  xmlns:vectornator CDATA #FIXED "http://vectornator.io"
  vectornator:shadowColor CDATA #IMPLIED >
<!ATTLIST path
  xmlns:vectornator CDATA #FIXED "http://vectornator.io"
  vectornator:shadowOpacity CDATA #IMPLIED >
<!ATTLIST path
  xmlns:vectornator CDATA #FIXED "http://vectornator.io"
  vectornator:shadowRadius CDATA #IMPLIED >
<!ATTLIST path
  xmlns:vectornator CDATA #FIXED "http://vectornator.io"
  vectornator:shadowOffset CDATA #IMPLIED >
<!ATTLIST path
  xmlns:vectornator CDATA #FIXED "http://vectornator.io"
  vectornator:shadowAngle CDATA #IMPLIED >

<!ATTLIST image
  xmlns:vectornator CDATA #FIXED "http://vectornator.io"
  vectornator:blendMode CDATA #IMPLIED >
<!ATTLIST image
  xmlns:vectornator CDATA #FIXED "http://vectornator.io"
  vectornator:shadowColor CDATA #IMPLIED >
<!ATTLIST image
  xmlns:vectornator CDATA #FIXED "http://vectornator.io"
  vectornator:shadowOpacity CDATA #IMPLIED >
<!ATTLIST image
  xmlns:vectornator CDATA #FIXED "http://vectornator.io"
  vectornator:shadowRadius CDATA #IMPLIED >
<!ATTLIST image
  xmlns:vectornator CDATA #FIXED "http://vectornator.io"
  vectornator:shadowOffset CDATA #IMPLIED >
<!ATTLIST image
  xmlns:vectornator CDATA #FIXED "http://vectornator.io"
  vectornator:shadowAngle CDATA #IMPLIED >

<!ATTLIST g
  xmlns:vectornator CDATA #FIXED "http://vectornator.io"
  vectornator:blendMode CDATA #IMPLIED >
<!ATTLIST g
  xmlns:vectornator CDATA #FIXED "http://vectornator.io"
  vectornator:shadowColor CDATA #IMPLIED >
<!ATTLIST g
  xmlns:vectornator CDATA #FIXED "http://vectornator.io"
  vectornator:shadowOpacity CDATA #IMPLIED >
<!ATTLIST g
  xmlns:vectornator CDATA #FIXED "http://vectornator.io"
  vectornator:shadowRadius CDATA #IMPLIED >
<!ATTLIST g
  xmlns:vectornator CDATA #FIXED "http://vectornator.io"
  vectornator:shadowOffset CDATA #IMPLIED >
<!ATTLIST g
  xmlns:vectornator CDATA #FIXED "http://vectornator.io"
  vectornator:shadowAngle CDATA #IMPLIED >

<!ENTITY % SVG.filter.extra.content  "| feDropShadow" >
<!ELEMENT feDropShadow EMPTY>
<!ATTLIST feDropShadow
  xmlns:svg CDATA #FIXED "http://www.w3.org/Graphics/SVG/1.1/DTD/svg11.dtd"
  dx CDATA #IMPLIED>
<!ATTLIST feDropShadow
  xmlns:svg CDATA #FIXED "http://www.w3.org/Graphics/SVG/1.1/DTD/svg11.dtd"
  dy CDATA #IMPLIED>
<!ATTLIST feDropShadow
  xmlns:svg CDATA #FIXED "http://www.w3.org/Graphics/SVG/1.1/DTD/svg11.dtd"
  stdDeviation CDATA #IMPLIED>
<!ATTLIST feDropShadow
  xmlns:svg CDATA #FIXED "http://www.w3.org/Graphics/SVG/1.1/DTD/svg11.dtd"
  flood-opacity CDATA #IMPLIED>
<!ATTLIST feDropShadow
  xmlns:svg CDATA #FIXED "http://www.w3.org/Graphics/SVG/1.1/DTD/svg11.dtd"
  in CDATA #IMPLIED>
<!ATTLIST feDropShadow
  xmlns:svg CDATA #FIXED "http://www.w3.org/Graphics/SVG/1.1/DTD/svg11.dtd"
  result CDATA #IMPLIED>
<!ATTLIST feDropShadow
  xmlns:svg CDATA #FIXED "http://www.w3.org/Graphics/SVG/1.1/DTD/svg11.dtd"
  flood-color CDATA #IMPLIED>
]
>
<!-- Created with Vectornator (http://vectornator.io/) -->
<svg height="100%" stroke-miterlimit="10" style="fill-rule:nonzero;clip-rule:evenodd;stroke-linecap:round;stroke-linejoin:round;" version="1.1" viewBox="0 0 2034.71 893.542" width="100%" xml:space="preserve" xmlns="http://www.w3.org/2000/svg" xmlns:vectornator="http://vectornator.io" xmlns:xlink="http://www.w3.org/1999/xlink">
<defs>
<linearGradient gradientTransform="matrix(1 0 0 1 0 0)" gradientUnits="userSpaceOnUse" id="LinearGradient" x1="-0.0062931" x2="2034.7" y1="446.773" y2="446.773">
<stop offset="0" stop-color="#7200ff"/>
<stop offset="1" stop-color="#c500ff"/>
</linearGradient>
</defs>
<clipPath id="ArtboardFrame">
<rect height="893.542" width="2034.71" x="0" y="0"/>
</clipPath>
<g clip-path="url(#ArtboardFrame)" id="Untitled" vectornator:layerName="Untitled">
<path d="M530.031 0.03125C478.299 1.03036 426.255 29.5046 403.312 76.4062C336.763 8.7719 224.621-8.45565 140.844 36.0938C116.434 49.0738 93.1605 68.6056 86.375 95.4062C79.5895 122.207 96.691 155.647 124.281 157.406C145.008 158.728 162.433 143.37 179.812 132C213.289 110.099 257.335 101.251 294 117.25C330.665 133.249 355.008 177.869 341.094 215.375C319.062 274.761 297.032 334.145 275 393.531C225.843 364.612 164.65 356.956 109.875 372.844C70.5831 384.241 33.7383 408.537 14.0625 444.406C-25.732 516.952 23.7061 617.072 102.031 643.75C180.356 670.428 270.953 633.056 322.281 568.156C397.748 641.599 528.151 649.025 611.469 584.625C678.906 651.649 806.479 640.251 860.938 562.312C893.364 569.115 927.505 567.57 959.188 557.875C974.294 593.485 1005.88 621.688 1042.97 632.688C970.599 645.968 887.444 677.081 869.875 748.531C856.074 804.659 895.024 865.741 949.375 885.406C1003.73 905.072 1067.16 887.513 1110.81 849.625C1154.46 811.736 1179.99 756.311 1191.28 699.625C1193.49 688.534 1204.65 681.898 1214.69 676.688C1264.06 651.057 1313.41 625.443 1362.78 599.812C1416.34 625.84 1477.11 636.909 1536.41 631.438C1550.26 630.159 1564.32 627.893 1576.72 621.562C1610.8 604.156 1622.81 562.45 1633.22 525.625C1650.92 462.991 1673.66 401.793 1701.19 342.812C1709.11 325.831 1718.43 307.989 1734.94 299.125C1751.45 290.261 1776.85 296.106 1781.16 314.344C1783.22 323.077 1780.1 332.099 1777.03 340.531C1762.79 379.646 1748.55 418.761 1734.31 457.875C1724.59 484.591 1714.72 512.509 1718 540.75C1726.19 611.175 1816.92 647.448 1883.47 623C1950.02 598.552 1993.37 534.418 2023.19 470.094C2033.51 447.818 2041.89 418.922 2025.28 400.844C2006.56 380.466 1970.59 392.341 1953.84 414.375C1937.1 436.409 1931.71 464.946 1918.47 489.25C1907.42 509.535 1890.79 526.73 1870.88 538.438C1861.03 544.227 1849.54 548.805 1838.38 546.406C1827.21 544.008 1817.62 532.101 1821.38 521.312C1838.09 473.341 1854.79 425.378 1871.5 377.406C1881.92 347.49 1892.49 315.581 1885.34 284.719C1877.51 250.9 1848.21 224.26 1814.75 215C1781.29 205.74 1744.72 212.386 1713.97 228.5C1701.39 205.406 1665.76 205.22 1645.03 221.406C1624.31 237.592 1614.82 263.898 1606.31 288.781C1585.15 350.707 1563.98 412.636 1542.81 474.562C1533.91 500.615 1522.83 529.228 1498.06 541.25C1473.29 553.272 1435 531.462 1444.34 505.562C1467.49 441.388 1490.61 377.206 1513.75 313.031C1526.61 277.381 1533.38 226.341 1498.41 211.75C1463.55 197.21 1431.71 238.058 1418.5 273.438C1397.68 329.213 1384.98 388.018 1360.28 442.188C1335.58 496.357 1295.92 547.402 1239.97 567.75C1271.79 477.539 1303.64 387.336 1335.47 297.125C1340.48 282.92 1345.56 268.089 1343.84 253.125C1341.24 230.492 1321.23 211.101 1298.53 209.188C1275.83 207.274 1252.88 223.059 1246.53 244.938C1191.8 195.071 1094.72 203.767 1049.72 262.562C1019.77 301.694 1013.69 353.48 995.906 399.438C978.12 445.395 937.217 491.236 888.5 483.812C897.429 461.117 906.352 438.414 915.281 415.719C925.904 388.719 936.679 360.888 936.5 331.875C936.085 264.685 870.72 208.47 803.531 207.875C736.343 207.28 674.268 254.233 645.531 314.969C612.629 384.511 610.907 478.346 543.906 516.156C498.287 541.9 437.454 527.169 399.094 491.5C388.132 481.307 378.122 468.448 377.344 453.5C376.867 444.345 379.924 435.408 382.938 426.75C403.548 367.54 424.171 308.335 444.781 249.125C505.486 294.761 603.385 277.717 645.094 214.25C686.803 150.783 663.601 54.178 597.625 16.5625C577.008 4.80764 553.546-0.422891 530.031 0.03125ZM1540.75 24.875C1532.47 24.7458 1524.17 26.319 1516.56 29.5938C1492.03 40.1477 1476.85 68.9617 1482.03 95.1562C1487.21 121.351 1512.21 142.208 1538.91 142.625C1565.61 143.042 1591.25 122.958 1597.25 96.9375C1603.25 70.9174 1588.97 41.6579 1564.78 30.3438C1557.28 26.8331 1549.03 25.0042 1540.75 24.875ZM537.188 105.344C542.071 105.359 546.909 106.264 551.438 108.156C554.222 109.32 556.879 110.855 559.094 112.906C561.628 115.254 563.516 118.227 564.938 121.375C572.42 137.945 565.038 159.717 549 168.281C539.198 173.515 527.204 173.93 516.625 170.531C506.046 167.132 496.832 160.13 489.719 151.594C488.722 150.397 487.744 149.114 487.406 147.594C486.938 145.483 487.777 143.336 488.688 141.375C494.201 129.504 502.544 118.617 513.781 111.906C520.805 107.712 529.048 105.318 537.188 105.344ZM1165.19 294.469C1173 294.032 1180.96 295.809 1187.69 299.812C1201.15 307.82 1209.11 323.941 1208 339.562C1207.44 347.497 1204.79 355.09 1202.16 362.594C1190.29 396.344 1178.43 430.093 1166.56 463.844C1159.88 482.845 1153.01 502.201 1140.84 518.25C1128.67 534.299 1110.11 546.802 1089.97 546.594C1081.2 546.503 1071.89 543.601 1066.66 536.562C1058.83 526.026 1062.81 511.209 1067.12 498.812C1085.77 445.256 1104.45 391.712 1123.09 338.156C1127.67 325.007 1132.72 311.128 1143.59 302.438C1149.71 297.55 1157.38 294.906 1165.19 294.469ZM799.5 295.094C812.341 294.971 825.165 299.131 831.781 309.719C839.431 321.962 836.018 337.812 832.375 351.781C829.806 361.63 827.256 371.464 824.688 381.312C824.237 383.04 823.732 384.835 822.531 386.156C820.356 388.55 816.702 388.588 813.469 388.688C786.503 389.516 760.937 408.172 751.906 433.594C742.876 459.016 750.944 489.596 771.344 507.25C773.716 509.302 772.884 513.11 771.594 515.969C762.82 535.401 741.445 548.402 720.156 547.219C711.591 546.743 702.824 543.963 696.781 537.875C687.11 528.131 686.576 512.581 688.969 499.062C691.111 486.956 695.091 475.26 699.062 463.625C713.11 422.47 727.395 381.389 741.938 340.406C744.959 331.891 748.073 323.215 753.594 316.062C761.612 305.673 774.074 299.456 786.875 296.562C790.934 295.645 795.22 295.135 799.5 295.094ZM171.938 454.219C176.97 453.992 182.032 454.261 187 455C206.872 457.955 225.284 468.152 239.75 482.094C240.865 483.168 242.013 484.347 242.406 485.844C242.922 487.805 242.039 489.831 241.156 491.656C228.064 518.731 207.05 543.229 179.031 554.156C157.505 562.551 129.361 560.574 115.875 541.812C111.856 536.221 109.456 529.561 108.438 522.75C105.466 502.88 114.642 482.088 130.25 469.438C141.956 459.95 156.839 454.899 171.938 454.219ZM1065.62 712.25C1066.4 712.349 1067.06 712.689 1067.28 713.438C1067.46 714.028 1067.26 714.668 1067.06 715.25C1062.54 728.37 1058 741.494 1053.16 754.5C1050.36 762.007 1047.44 769.522 1043 776.188C1033.76 790.044 1017.98 799.321 1001.38 800.625C993.101 801.275 984.011 799.688 978.344 793.625C974.123 789.11 972.417 782.676 972.656 776.5C973.287 760.217 986.058 746.943 999.781 738.156C1019.05 725.82 1041.28 719.104 1063.19 712.531C1063.94 712.307 1064.85 712.151 1065.62 712.25Z" fill="url(#LinearGradient)" fill-rule="evenodd" opacity="1" stroke="none"/>
</g>
</svg>
