<?xml version="1.0" encoding="utf-8"?><!DOCTYPE svg PUBLIC "-//W3C//DTD SVG 1.1//EN" "http://www.w3.org/Graphics/SVG/1.1/DTD/svg11.dtd"><svg version="1.1" id="Contours" xmlns="http://www.w3.org/2000/svg" xmlns:xlink="http://www.w3.org/1999/xlink" x="0px" y="0px" width="1446.756348px" height="1446.756348px" viewBox="0.000007 -0.000001 1446.756348 1448.789673" enable-background="new 0 0 1446.756348 1446.756348" xml:space="preserve" stroke="black" fill="none" stroke-linecap='round' stroke-linejoin='round'><path class="selected"  fill="#000000" opacity="1.000000" stroke="none" 
 	d="
M1042.963902 1378.062699 C787.903046 1502.828755 459.907232 1459.386868 246.120576 1272.523615 C32.333920 1085.660363 -54.601410 766.425810 34.917156 496.965171 C124.435721 227.504533 385.114547 23.752229 668.218478 1.962929 C951.322409 -19.826371 1240.110235 141.635832 1369.808689 394.224273 C1499.507142 646.812714 1462.446568 975.590702 1279.772568 1192.967838 C1214.847201 1270.227275 1133.616757 1333.718777 1042.963904 1378.062700 M1370.209765 535.714630 C1305.252051 315.253418 1119.868132 134.429556 897.857807 74.981544 C879.225136 69.992248 860.047838 65.774843 840.804531 67.103232 C806.286184 69.486072 775.505958 89.325633 748.674643 111.172251 C645.159734 195.456271 576.599683 317.642395 542.050741 446.582312 C518.271725 535.327827 509.646785 627.506736 487.518530 716.678191 C465.390275 805.849645 427.383455 894.969423 357.502930 954.617727 C287.622405 1014.266030 180.179362 1036.624800 102.044001 988.291859 C192.504605 1198.941255 395.991748 1356.932260 622.487304 1392.373207 C639.899134 1395.097728 658.048657 1397.096263 674.876328 1391.859438 C686.962196 1388.098272 697.599157 1380.829440 708.025965 1373.653351 C937.244946 1215.896894 1169.171856 1048.537240 1321.362199 815.585442 C1352.021476 768.656487 1379.729318 717.708925 1385.831865 661.985707 C1390.479735 619.545351 1382.276465 576.668034 1370.209765 535.714630 M624.491380 59.858584 C461.360539 84.051558 308.282108 170.683128 203.556294 298.078086 C98.830481 425.473043 43.452929 592.420226 51.279095 757.149465 C51.916912 770.574666 53.026680 784.275227 58.359688 796.612239 C63.694564 808.953552 72.924064 819.157138 82.392446 828.702745 C111.804206 858.354372 148.156968 885.254417 189.878943 887.137789 C248.171213 889.769164 297.169375 843.187884 328.036791 793.669050 C357.315795 746.698417 377.404679 694.023146 386.838622 639.484160 C391.686420 611.458336 393.741085 583.035670 397.074503 554.789674 C410.588374 440.278740 445.408513 328.317538 499.222909 226.340141 C531.820124 164.568952 571.892599 105.811022 624.491380 59.858585 M498.003004 406.916549 C538.944771 267.700817 623.984541 141.810620 737.849639 51.855145 C709.416332 48.331329 680.534755 58.425253 656.948807 74.690976 C633.362859 90.956699 614.424963 113.035870 596.970701 135.756333 C519.964542 235.996377 466.519460 354.217718 442.138190 478.248232 C430.902656 535.404777 425.764114 593.608196 415.100890 650.874273 C404.437667 708.140350 387.821863 765.326803 355.951384 814.085192 C324.080905 862.843580 275.286643 902.647346 218.108793 913.773953 C160.930943 924.900561 96.067037 902.900477 65.200181 853.500628 C86.467925 914.707540 144.277816 965.227738 209.074226 965.396279 C266.041502 965.544456 317.284895 928.640315 352.763128 884.069164 C405.031367 818.404800 431.112164 735.767892 448.148717 653.588007 C465.185270 571.408122 474.323726 487.434058 498.003013 406.916551 M898.470056 1376.709155 C1094.344784 1323.994370 1262.917808 1178.084995 1343.174014 991.793023 C1348.026714 980.528857 1352.573181 969.130554 1356.683638 957.574852 C1224.861380 1118.038130 1069.286656 1258.610635 898.470057 1376.709155 M1391.923817 798.471077 C1328.525350 916.135944 1236.510408 1015.948237 1138.544013 1106.871128 C1062.151689 1177.771063 981.530982 1244.114541 897.252893 1305.431681 C853.554836 1337.224523 808.885570 1367.659798 763.975803 1397.716709 C794.395230 1402.456030 823.671734 1385.813272 849.586711 1369.193504 C1032.098739 1252.144983 1194.100348 1104.162169 1332.375383 937.156149 C1365.450526 897.208608 1399.043019 849.843137 1391.923828 798.471080 z"/></svg>