<?xml version="1.0" encoding="utf-8"?><!DOCTYPE svg PUBLIC "-//W3C//DTD SVG 1.1//EN" "http://www.w3.org/Graphics/SVG/1.1/DTD/svg11.dtd"><svg version="1.1" id="Contours" xmlns="http://www.w3.org/2000/svg" xmlns:xlink="http://www.w3.org/1999/xlink" x="0px" y="0px" width="899.798401px" height="899.798401px" viewBox="0.000020 0.000008 899.798401 679.406555" enable-background="new 0 0 899.798401 899.798401" xml:space="preserve" stroke="black" fill="none" stroke-linecap='round' stroke-linejoin='round'><path class="selected"  fill="#000000" opacity="1.000000" stroke="none" 
 	d="
M51.759200 370.305784 C40.538385 379.911257 21.955119 374.184075 12.995063 362.441452 C4.035008 350.698829 2.111432 335.211855 0.497846 320.529616 C-0.085843 315.218455 -0.615346 309.571806 1.741319 304.776477 C4.380068 299.407225 10.031057 296.305016 15.390378 293.646170 C82.752664 260.226676 158.383842 243.634038 233.549764 245.784431 C272.252854 112.150793 400.256019 9.446708 539.101352 0.623336 C677.946684 -8.200037 817.920978 77.474560 873.228774 205.133974 C928.536570 332.793388 895.308699 493.506946 793.911761 588.767323 C692.514824 684.027699 530.042247 707.170761 406.079527 644.011264 C282.116806 580.851766 205.336004 435.808159 222.798934 297.783073 C160.167221 303.692569 99.549963 329.394947 51.759199 370.305784 M556.863669 170.781628 C560.054374 159.142294 572.860846 152.275851 584.926533 152.003991 C596.992220 151.732131 608.516635 156.567978 619.612019 161.316364 C629.031242 165.347421 639.742409 170.960098 641.323519 181.082907 C642.039374 185.666064 640.638774 190.286288 639.254596 194.713682 C620.865264 253.533277 602.475933 312.352872 584.086602 371.172468 C645.041053 342.209179 687.688202 278.095496 690.840688 210.683487 C691.660151 193.160273 680.999167 176.513604 666.626692 166.455448 C652.254217 156.397292 634.643795 152.046997 617.237806 149.863865 C527.925537 138.661945 434.003807 184.404895 387.757536 261.628252 C383.402076 268.901124 380.295518 280.053819 387.580283 284.389357 C414.331635 300.310458 434.515041 330.573613 430.458890 361.438868 C426.402739 392.304122 391.907184 417.896290 363.035275 406.254592 C344.647221 398.840184 333.354445 379.382543 330.211304 359.806674 C327.068163 340.230805 330.696747 320.272918 334.315879 300.779436 C314.288341 294.493447 292.958297 292.390626 272.088830 294.644786 C253.345435 412.416866 315.005725 538.786158 419.370064 596.489384 C523.734403 654.192611 663.544677 639.216747 753.319676 560.718166 C843.094674 482.219584 876.590911 345.657542 833.328498 234.527253 C790.066085 123.396963 673.053745 45.427086 553.833837 48.289078 C434.613928 51.151070 321.477709 134.645891 283.597642 247.724086 C300.044540 251.614463 316.491437 255.504840 332.938335 259.395217 C338.725117 260.764033 346.448143 261.271914 348.958416 255.881271 C371.805948 206.817405 412.196100 166.145940 461.100197 142.958419 C483.118932 132.518396 506.677888 125.559836 530.594580 120.889652 C572.170926 112.771087 615.549766 111.565129 656.670567 121.742722 C697.791369 131.920314 736.561178 154.007607 763.061281 187.056787 C767.432311 192.508047 771.550099 198.425510 773.151905 205.226712 C775.515681 215.263202 772.102276 225.693594 768.232508 235.250971 C734.915969 317.534647 662.371758 382.904032 577.075115 407.502362 C571.769380 409.032460 569.424621 415.083697 567.821412 420.367800 C554.628685 463.850433 541.435957 507.333066 528.243229 550.815699 C526.182573 557.607529 518.195005 561.191712 511.137057 560.442955 C504.079110 559.694197 497.838958 555.644177 492.162876 551.383031 C480.681813 542.763967 469.664110 531.822763 466.875080 517.739995 C464.770067 507.111073 467.656434 496.199588 470.521059 485.749756 C499.301930 380.760381 528.082799 275.771005 556.863669 170.781628 M385.438183 378.114790 C388.630393 378.069371 390.935286 375.000727 392.046355 372.007769 C394.475442 365.464379 393.679662 358.151555 391.904571 351.401335 C388.671471 339.106675 382.258483 327.662551 373.460004 318.486584 C373.126994 318.139286 372.760710 317.778301 372.289016 317.683343 C370.935074 317.410778 370.286083 319.276970 370.213521 320.656168 C369.541864 333.422678 368.887789 346.398152 371.853597 358.833540 C373.257377 364.719473 375.554261 370.559210 379.675760 374.989565 C381.209589 376.638337 383.186505 378.146828 385.438183 378.114790 z"/></svg>