<?xml version="1.0" encoding="UTF-8" standalone="no"?>
<!DOCTYPE svg PUBLIC "-//W3C//DTD SVG 1.1//EN" "http://www.w3.org/Graphics/SVG/1.1/DTD/svg11.dtd"
[
<!ATTLIST g
  xmlns:vectornator CDATA #FIXED "http://vectornator.io"
  vectornator:layerName CDATA #IMPLIED >
<!ATTLIST g
  xmlns:vectornator CDATA #FIXED "http://vectornator.io"
  vectornator:mask CDATA #IMPLIED >
<!ATTLIST text
  xmlns:vectornator CDATA #FIXED "http://vectornator.io"
  vectornator:width CDATA #IMPLIED >
<!ATTLIST text
  xmlns:vectornator CDATA #FIXED "http://vectornator.io"
  vectornator:text CDATA #IMPLIED >

<!ATTLIST path
  xmlns:vectornator CDATA #FIXED "http://vectornator.io"
  vectornator:blendMode CDATA #IMPLIED >
<!ATTLIST path
  xmlns:vectornator CDATA #FIXED "http://vectornator.io"
  vectornator:shadowColor CDATA #IMPLIED >
<!ATTLIST path
  xmlns:vectornator CDATA #FIXED "http://vectornator.io"
  vectornator:shadowOpacity CDATA #IMPLIED >
<!ATTLIST path
  xmlns:vectornator CDATA #FIXED "http://vectornator.io"
  vectornator:shadowRadius CDATA #IMPLIED >
<!ATTLIST path
  xmlns:vectornator CDATA #FIXED "http://vectornator.io"
  vectornator:shadowOffset CDATA #IMPLIED >
<!ATTLIST path
  xmlns:vectornator CDATA #FIXED "http://vectornator.io"
  vectornator:shadowAngle CDATA #IMPLIED >

<!ATTLIST image
  xmlns:vectornator CDATA #FIXED "http://vectornator.io"
  vectornator:blendMode CDATA #IMPLIED >
<!ATTLIST image
  xmlns:vectornator CDATA #FIXED "http://vectornator.io"
  vectornator:shadowColor CDATA #IMPLIED >
<!ATTLIST image
  xmlns:vectornator CDATA #FIXED "http://vectornator.io"
  vectornator:shadowOpacity CDATA #IMPLIED >
<!ATTLIST image
  xmlns:vectornator CDATA #FIXED "http://vectornator.io"
  vectornator:shadowRadius CDATA #IMPLIED >
<!ATTLIST image
  xmlns:vectornator CDATA #FIXED "http://vectornator.io"
  vectornator:shadowOffset CDATA #IMPLIED >
<!ATTLIST image
  xmlns:vectornator CDATA #FIXED "http://vectornator.io"
  vectornator:shadowAngle CDATA #IMPLIED >

<!ATTLIST g
  xmlns:vectornator CDATA #FIXED "http://vectornator.io"
  vectornator:blendMode CDATA #IMPLIED >
<!ATTLIST g
  xmlns:vectornator CDATA #FIXED "http://vectornator.io"
  vectornator:shadowColor CDATA #IMPLIED >
<!ATTLIST g
  xmlns:vectornator CDATA #FIXED "http://vectornator.io"
  vectornator:shadowOpacity CDATA #IMPLIED >
<!ATTLIST g
  xmlns:vectornator CDATA #FIXED "http://vectornator.io"
  vectornator:shadowRadius CDATA #IMPLIED >
<!ATTLIST g
  xmlns:vectornator CDATA #FIXED "http://vectornator.io"
  vectornator:shadowOffset CDATA #IMPLIED >
<!ATTLIST g
  xmlns:vectornator CDATA #FIXED "http://vectornator.io"
  vectornator:shadowAngle CDATA #IMPLIED >

<!ENTITY % SVG.filter.extra.content  "| feDropShadow" >
<!ELEMENT feDropShadow EMPTY>
<!ATTLIST feDropShadow
  xmlns:svg CDATA #FIXED "http://www.w3.org/Graphics/SVG/1.1/DTD/svg11.dtd"
  dx CDATA #IMPLIED>
<!ATTLIST feDropShadow
  xmlns:svg CDATA #FIXED "http://www.w3.org/Graphics/SVG/1.1/DTD/svg11.dtd"
  dy CDATA #IMPLIED>
<!ATTLIST feDropShadow
  xmlns:svg CDATA #FIXED "http://www.w3.org/Graphics/SVG/1.1/DTD/svg11.dtd"
  stdDeviation CDATA #IMPLIED>
<!ATTLIST feDropShadow
  xmlns:svg CDATA #FIXED "http://www.w3.org/Graphics/SVG/1.1/DTD/svg11.dtd"
  flood-opacity CDATA #IMPLIED>
<!ATTLIST feDropShadow
  xmlns:svg CDATA #FIXED "http://www.w3.org/Graphics/SVG/1.1/DTD/svg11.dtd"
  in CDATA #IMPLIED>
<!ATTLIST feDropShadow
  xmlns:svg CDATA #FIXED "http://www.w3.org/Graphics/SVG/1.1/DTD/svg11.dtd"
  result CDATA #IMPLIED>
<!ATTLIST feDropShadow
  xmlns:svg CDATA #FIXED "http://www.w3.org/Graphics/SVG/1.1/DTD/svg11.dtd"
  flood-color CDATA #IMPLIED>
]
>
<!-- Created with Vectornator (http://vectornator.io/) -->
<svg height="100%" stroke-miterlimit="10" style="fill-rule:nonzero;clip-rule:evenodd;stroke-linecap:round;stroke-linejoin:round;" version="1.1" viewBox="0 0 1686.45 190.981" width="100%" xml:space="preserve" xmlns="http://www.w3.org/2000/svg" xmlns:vectornator="http://vectornator.io" xmlns:xlink="http://www.w3.org/1999/xlink">
<defs>
<linearGradient gradientTransform="matrix(1 0 0 1 0 0)" gradientUnits="userSpaceOnUse" id="LinearGradient" x1="0.00630411" x2="1686.45" y1="95.4873" y2="95.4873">
<stop offset="0" stop-color="#7200ff"/>
<stop offset="1" stop-color="#c500ff"/>
</linearGradient>
</defs>
<clipPath id="ArtboardFrame">
<rect height="190.981" width="1686.45" x="0" y="0"/>
</clipPath>
<g clip-path="url(#ArtboardFrame)" id="Untitled" vectornator:layerName="Untitled">
<path d="M1210.69 0C1206.43-0.0336334 1202.16 1.21983 1198.75 3.78125C1192.58 8.41999 1189.73 16.1478 1187.19 23.4375C1171.58 68.2301 1155.98 113.02 1140.38 157.812C1137.66 165.614 1135.02 174.539 1138.94 181.812C1143.48 190.248 1155.69 192.252 1164.09 187.656C1172.5 183.06 1177.34 173.663 1179.12 164.25C1180.17 158.762 1180.4 152.938 1183.12 148.062C1185.85 143.187 1192.31 139.733 1197.12 142.562C1214.98 153.048 1239.01 145.35 1253.44 130.5C1267.87 115.65 1274.94 95.3552 1281.59 75.75C1285.64 63.8282 1289.76 51.3048 1287.75 38.875C1284.81 20.6394 1267.22 5.95321 1248.75 6.3125C1239.77 6.48722 1229.66 9.47933 1222.56 3.96875C1219.2 1.3538 1214.94 0.0336337 1210.69 0ZM1488.19 5.78125C1482.76 5.61037 1477.09 8.44103 1473.34 12.5938C1468.35 18.1307 1465.98 25.4892 1463.72 32.5938C1461.04 41.0245 1458.34 49.4443 1455.66 57.875C1454.58 61.2475 1453.42 64.7634 1450.91 67.25C1448.39 69.7366 1444.08 70.7659 1441.31 68.5625C1429.39 59.0759 1410.72 63.893 1400.12 74.8438C1389.53 85.7945 1384.96 101.049 1380.62 115.656C1376.29 130.263 1371.42 145.5 1360.47 156.094C1358.31 158.179 1355.69 160.157 1352.69 160.156C1349.69 160.155 1346.66 157.204 1347.66 154.375C1354.44 135.147 1361.22 115.915 1368 96.6875C1370.62 89.2488 1373.28 81.2794 1371.38 73.625C1369.47 65.9706 1360.94 59.4501 1353.75 62.6875C1335.12 71.0719 1310.68 58.1968 1293.94 69.9062C1285.98 75.4694 1282.19 85.1708 1278.84 94.2812C1273.89 107.772 1268.96 121.259 1264 134.75C1261.43 141.755 1258.81 148.913 1258.69 156.375C1258.36 176.606 1280.03 194.045 1299.72 189.375C1310.4 186.842 1322.63 179.437 1331.03 186.5C1347.22 200.107 1374.9 175.128 1391.81 187.812C1399.22 193.364 1409.69 190.087 1418.34 186.812C1427 183.538 1437.81 180.83 1444.66 187.062C1451.88 193.638 1463.26 190.673 1472.41 187.25C1481.55 183.827 1492.8 180.624 1500.25 186.938C1515.24 199.643 1541.51 174.549 1556.38 187.406C1563.22 193.325 1573.71 190.789 1582.16 187.562C1590.61 184.336 1600.43 180.795 1608.25 185.344C1622.16 193.437 1640.5 190.908 1653.97 182.094C1667.43 173.28 1676.6 159.153 1682.97 144.375C1686.69 135.741 1688.95 124.146 1681.66 118.219C1675.82 113.477 1666.63 115.535 1661.06 120.594C1655.5 125.653 1652.59 132.91 1649.53 139.781C1646.47 146.652 1642.78 153.725 1636.41 157.719C1632.88 159.926 1627.07 160.302 1625.62 156.406C1624.93 154.548 1625.61 152.49 1626.28 150.625C1632.6 133.122 1638.93 115.597 1645.25 98.0938C1649.18 87.1986 1652.01 72.5995 1642.41 66.125C1635.72 61.6177 1626.15 64.3382 1620.47 70.0625C1614.79 75.7868 1612.07 83.7224 1609.53 91.375C1605.04 104.908 1600.56 118.436 1596.06 131.969C1593.82 138.719 1591.47 145.664 1586.88 151.094C1582.28 156.523 1574.84 160.163 1568 158.219C1582.18 117.54 1596.35 76.8664 1610.53 36.1875C1612.46 30.6575 1614.4 24.768 1613.22 19.0312C1611.26 9.48675 1599.46 3.4256 1590.56 7.40625C1582.61 10.9669 1578.89 19.9683 1575.91 28.1562C1570.74 42.3265 1565.57 56.5172 1560.41 70.6875C1548.8 64.0458 1534.14 61.5055 1521.91 66.9062C1505.36 74.2087 1497.71 93.1241 1492.69 110.5C1487.67 127.876 1482.8 146.922 1468.41 157.875C1466.34 159.444 1463.54 160.829 1461.28 159.562C1458.3 157.893 1459.02 153.471 1460.16 150.25C1472.91 114.056 1485.66 77.8815 1498.41 41.6875C1500.54 35.6197 1502.72 29.3682 1502.53 22.9375C1502.35 16.5068 1499.29 9.74081 1493.47 7C1491.78 6.20592 1490 5.83821 1488.19 5.78125ZM356 5.84375C351.002 6.37459 346.189 9.39228 342.906 13.3438C338.529 18.6124 336.284 25.3015 334.156 31.8125C326.666 54.7332 319.177 77.6418 311.688 100.562C306.6 116.132 301.272 132.184 290.438 144.469C279.603 156.753 261.724 164.37 246.469 158.406C239.775 155.789 233.553 148.032 237.312 141.906C256.839 149.515 281.423 143.737 293.781 126.812C306.14 109.888 303.185 82.996 286.156 70.7812C269.865 59.0954 245.935 63.0549 230.469 75.8125C215.003 88.5701 206.746 108.166 202.312 127.719C199.979 138.009 198.568 148.901 201.625 159C206.542 175.242 222.557 186.386 239.25 189.438C255.943 192.489 273.172 188.67 289.156 182.969C294.372 181.108 300.537 179.152 305.062 182.344C320.736 193.396 343.735 192.618 358.625 180.531C363.524 176.555 370.629 180.198 376.219 183.125C394.76 192.833 417.972 193.055 436.688 183.688C443.416 180.32 451.846 175.889 457.719 180.594C472.348 192.313 494.34 193.78 510.406 184.125C521.128 177.682 533.836 166.603 543.969 173.938C541.452 181.401 548.353 189.659 556.188 190.469C564.022 191.278 571.546 186.337 576.094 179.906C580.641 173.475 582.794 165.73 585.062 158.188C590.471 140.202 596.831 122.476 604.094 105.156C605.863 100.937 608.073 96.378 612.312 94.6562C616.552 92.9345 622.688 96.7427 621.094 101.031C614.003 120.1 606.903 139.181 599.812 158.25C596.153 168.091 593.162 180.881 601.156 187.688C607.653 193.22 618.199 190.798 624.281 184.812C630.364 178.827 633.126 170.329 635.781 162.219C641.911 143.495 648.582 124.951 655.812 106.625C657.651 101.966 659.957 96.8638 664.594 94.9688C669.23 93.0736 675.91 97.6076 673.812 102.156C668.88 112.856 664.527 123.788 660.719 134.938C656.896 146.132 653.641 158.49 657.719 169.594C664.894 189.134 692.101 194.432 710.844 185.375C718.307 181.768 726.871 176.395 734.125 180.406C753.386 191.056 777.116 193.323 798.031 186.469C818.946 179.615 836.747 163.765 845.969 143.781C849.658 135.787 851.365 124.849 844.469 119.375C838.231 114.424 828.592 117.454 822.938 123.062C817.283 128.671 814.089 136.23 809.219 142.531C800.049 154.393 784.691 161.183 769.75 159.938C760.115 159.135 748.777 150.414 753.312 141.875C769.538 148.281 789.262 146.043 802.688 134.906C816.113 123.769 821.92 103.722 815.125 87.6562C809.208 73.6656 794.514 64.1655 779.344 63.375C764.174 62.5846 749.072 70.0602 739.562 81.9062C723.801 101.542 723.627 129.928 709.469 150.75C706.642 154.907 702.733 158.98 697.719 159.344C692.705 159.708 687.574 153.994 690.219 149.719C698.993 135.537 707.997 120.679 709.406 104.062C710.816 87.4461 702.013 68.6742 685.844 64.5938C671.249 60.9107 656.113 69.8801 641.156 68.1875C627.45 66.6363 613.738 65.0824 600.031 63.5312C588.12 62.1833 577.578 72.0872 572.688 83.0312C567.796 93.9753 566.748 106.229 562.844 117.562C558.94 128.896 550.754 140.174 538.906 142C540.849 136.495 542.808 130.973 544.75 125.469C547.461 117.786 550.195 109.928 550.188 101.781C550.171 82.8361 533.731 65.9987 514.969 63.375C496.206 60.7513 476.889 71.0322 466.5 86.875C453.445 106.784 452.669 134.414 434.781 150.125C429.497 154.766 422.958 157.991 416.062 159.375C406.434 161.308 394.556 158.38 390.938 149.25C389.135 144.701 389.763 139.561 390.812 134.781C394.045 120.056 401.057 106.175 411 94.8438C408.491 104.466 406.432 116.04 413.281 123.25C418.439 128.679 427.423 129.303 434.031 125.781C440.639 122.259 444.97 115.312 446.719 108.031C451.729 87.171 434.127 64.0034 412.688 63.2188C396.713 62.6341 381.857 72.8319 372.75 85.9688C363.643 99.1057 359.302 114.88 355.5 130.406C353.782 137.42 352.056 144.666 347.844 150.531C343.631 156.396 336.226 160.618 329.219 158.875C340.691 120.879 353.619 83.3178 367.969 46.3125C370.759 39.1171 373.653 31.6786 373.312 23.9688C372.972 16.2588 368.468 8.13211 361 6.1875C359.343 5.756 357.666 5.6668 356 5.84375ZM133.812 5.90625C128.602 6.29906 123.329 8.93277 119.594 12.7188C113.617 18.7763 110.634 27.0654 107.812 35.0938C98.7052 61.0074 89.576 86.9301 80.4688 112.844C74.8344 128.876 68.2325 146.162 53.7188 155C49.5729 157.525 43.1299 158.65 40.7188 154.438C39.2235 151.825 40.219 148.578 41.25 145.75C53.516 112.105 65.7965 78.4579 78.0625 44.8125C81.5812 35.1607 85.0052 24.0201 80.0312 15.0312C75.5249 6.88755 64.1139 3.48274 55.875 7.8125C47.9294 11.9881 44.305 21.1938 41.3125 29.6562C29.5882 62.811 17.8805 95.9702 6.15625 129.125C2.04369 140.755-2.11197 153.31 1.21875 165.188C4.90936 178.348 17.6738 187.762 31.1875 189.812C44.7012 191.863 58.5979 187.425 70.0938 180.031C74.6593 177.095 80.525 180.125 85.375 182.562C113.028 196.463 150.056 187.801 168.656 163.062C176.575 152.53 181.189 139.948 185.688 127.562C196.415 98.0289 207.148 68.5024 217.875 38.9688C221.058 30.2052 224.009 19.6475 218.375 12.2188C212.298 4.20658 199.121 5.21206 191.375 11.625C183.629 18.0379 179.961 27.9932 176.594 37.4688C166.144 66.8738 155.7 96.2824 145.25 125.688C141.856 135.239 138.252 145.106 131.188 152.375C127.445 156.226 122.338 159.334 117 158.75C111.662 158.166 106.862 152.539 108.719 147.5C121.352 113.219 133.992 78.9374 146.625 44.6562C148.951 38.3431 151.281 31.8531 151.312 25.125C151.344 18.3969 148.586 11.2454 142.781 7.84375C140.028 6.23038 136.939 5.67056 133.812 5.90625ZM953.844 6C946.672 5.87857 939.118 10.9002 935.125 17.3438C929.802 25.9351 928.564 36.369 925.219 45.9062C921.873 55.4435 914.929 65.1235 904.875 66.1562C898.908 66.7692 893.633 71.6286 892.562 77.5312C891.492 83.4339 894.722 89.8614 900.094 92.5312C902.854 93.9032 906.812 95.7622 905.75 98.6562C902.023 108.814 898.321 118.967 894.594 129.125C891.216 138.33 887.768 147.972 888.844 157.719C890.371 171.554 901.359 183.311 914.531 187.812C927.703 192.314 942.524 190.23 955.094 184.25C960.496 181.68 967.079 178.461 971.969 181.906C988.722 193.71 1013.19 193.062 1029.31 180.406C1034.87 176.043 1040.76 170.052 1047.69 171.438C1065.31 174.961 1082.38 162.905 1093.88 149.094C1099.44 142.408 1104.52 134.574 1104.56 125.875C1104.6 117.176 1097.57 108.004 1088.91 108.75C1080.03 109.514 1075.06 119.021 1070.97 126.938C1066.87 134.854 1059.37 143.521 1050.81 141.031C1052.77 136.445 1054.76 131.836 1056.72 127.25C1059.63 120.449 1062.57 113.519 1063.28 106.156C1065.27 85.6 1047.49 66.1031 1027 63.5312C1006.51 60.9594 985.764 73.4657 975.812 91.5625C969.05 103.861 966.774 118.071 961.781 131.188C956.788 144.304 947.725 157.346 934.094 160.688C930.272 161.624 926.521 158.071 925.719 154.219C924.917 150.367 926.193 146.441 927.469 142.719C931.382 131.3 935.306 119.887 939.219 108.469C941.871 100.728 947.523 91.2341 955.438 93.3125C964.171 95.6061 974.068 88.4205 974.594 79.4062C975.12 70.392 966.128 62.0816 957.188 63.3438C957.109 53.382 962.839 44.4359 966.125 35.0312C969.411 25.6266 969.245 13.173 960.75 7.96875C958.595 6.64876 956.234 6.04048 953.844 6ZM1651.12 11.4688C1645.28 11.3102 1639.33 13.5773 1635.47 18C1631.16 22.9369 1629.57 30.1056 1631.38 36.4062C1633.18 42.7069 1638.32 47.9437 1644.59 49.8438C1653.59 52.5671 1664.22 47.8002 1668.19 39.2812C1672.15 30.7623 1668.94 19.56 1661.06 14.4375C1658.11 12.5165 1654.63 11.5639 1651.12 11.4688ZM1233.03 39.25C1236.37 38.6754 1239.77 39.2177 1242.44 41.3125C1245.87 44.01 1247.33 48.635 1247.22 53C1247.11 57.365 1245.65 61.5636 1244.22 65.6875C1241.33 73.9807 1238.45 82.3006 1235.56 90.5938C1232.9 98.2459 1229.44 106.743 1221.91 109.719C1214.02 112.833 1203.68 106.414 1203.91 97.9375C1203.97 95.6896 1204.65 93.5157 1205.34 91.375C1208.51 81.5278 1211.68 71.691 1214.84 61.8438C1216.92 55.388 1219.17 48.6668 1224 43.9062C1226.42 41.526 1229.69 39.8246 1233.03 39.25ZM1019.22 94.2812C1021.73 94.1821 1024.16 94.9725 1025.78 96.9062C1026.68 97.9816 1027.26 99.2955 1027.59 100.656C1029.2 107.124 1024.99 114.492 1018.59 116.375C1012.14 118.277 1006.69 123.328 1004.31 129.625C1001.93 135.922 1002.67 143.302 1006.25 149C1006.99 150.175 1007.85 151.339 1008 152.719C1008.31 155.485 1005.64 157.678 1003.03 158.656C999.284 160.063 994.401 159.864 992.094 156.594C989.856 153.423 991.053 149.066 992.344 145.406C996.507 133.603 1000.68 121.803 1004.84 110C1006.52 105.245 1008.35 100.268 1012.19 97C1014.11 95.3658 1016.7 94.3804 1019.22 94.2812ZM507.281 94.3125C509.936 94.2978 512.44 95.2584 513.875 97.5C515.719 100.381 515.099 104.164 514.219 107.469C513.744 109.251 513.197 111.045 512.062 112.5C509.819 115.377 505.931 116.237 502.625 117.781C496.794 120.505 492.319 125.962 490.812 132.219C489.306 138.476 490.768 145.389 494.719 150.469C496.188 152.358 495.645 155.292 493.969 157C492.292 158.708 489.796 159.4 487.406 159.531C485.379 159.642 483.251 159.36 481.594 158.188C477.364 155.195 478.587 148.709 480.281 143.812C483.959 133.184 487.634 122.566 491.312 111.938C493.206 106.467 495.291 100.722 499.75 97.0312C501.8 95.3344 504.627 94.3272 507.281 94.3125ZM259.844 94.5312C264.635 94.9222 267.311 101.136 265.438 105.562C263.564 109.989 258.672 112.469 253.906 113.094C252.418 113.289 250.766 113.281 249.594 112.344C247.481 110.655 248.308 107.324 249.312 104.812C251.274 99.9082 254.579 94.1016 259.844 94.5312ZM777.094 94.5625C778.078 94.6959 779.021 95.0679 779.844 95.7188C781.865 97.3178 782.569 100.157 782.281 102.719C781.445 110.172 772.221 115.293 765.438 112.094C764.551 111.676 763.615 110.82 763.969 109.906C765.482 105.992 766.323 101.706 768.875 98.375C770.789 95.8764 774.14 94.1625 777.094 94.5625ZM1321.44 96.4688C1322.07 96.5615 1322.67 96.766 1323.22 97.125C1325.05 98.3114 1325.76 100.642 1325.97 102.812C1326.51 108.509 1324.59 114.124 1322.72 119.531C1319.73 128.161 1316.77 136.808 1313.78 145.438C1312.44 149.3 1311.01 153.27 1308.25 156.281C1305.52 159.252 1300.03 160.67 1297.84 157.281C1296.56 155.283 1297.14 152.665 1297.78 150.375C1302.03 135.164 1306.87 120.128 1312.25 105.281C1313.15 102.801 1314.1 100.206 1316 98.375C1317.42 97.0017 1319.54 96.1904 1321.44 96.4688ZM1428.62 96.625C1430.57 96.968 1432.53 98.1994 1433.41 100C1435.15 103.601 1434.02 107.884 1432.88 111.719C1429.22 123.991 1425.48 136.454 1418.5 147.188C1416.97 149.546 1415.04 151.954 1412.31 152.625C1409.58 153.296 1406.14 151.104 1406.69 148.344C1410.09 131.092 1415.86 114.31 1423.81 98.625C1424.72 96.8406 1426.68 96.282 1428.62 96.625ZM1539.59 96.6562C1540.29 96.6927 1540.95 96.838 1541.59 97.1562C1545.72 99.2115 1545.13 105.211 1543.91 109.656C1540.35 122.596 1536.7 135.784 1529.28 146.969C1527.98 148.93 1526.5 150.869 1524.41 151.938C1522.31 153.006 1519.43 152.923 1517.88 151.156C1515.98 149.006 1516.8 145.712 1517.72 143C1521.82 130.914 1525.93 118.805 1530.03 106.719C1530.95 104.014 1531.92 101.239 1533.88 99.1562C1535.34 97.5939 1537.52 96.5468 1539.59 96.6562Z" fill="url(#LinearGradient)" fill-rule="evenodd" opacity="1" stroke="none"/>
</g>
</svg>
